<mxfile host="app.diagrams.net" modified="2020-09-16T17:57:56.707Z" agent="5.0 (Windows NT 10.0; Win64; x64) AppleWebKit/537.36 (KHTML, like Gecko) Chrome/85.0.4183.102 Safari/537.36" etag="dLtvJWw7JFLkpGBPHmy7" version="13.7.1" type="github">
  <diagram id="aejDCDLZ5dSJ1int-bfM" name="Page-1">
    <mxGraphModel dx="1038" dy="580" grid="1" gridSize="10" guides="1" tooltips="1" connect="1" arrows="1" fold="1" page="1" pageScale="1" pageWidth="850" pageHeight="1100" math="0" shadow="0">
      <root>
        <mxCell id="0" />
        <mxCell id="1" parent="0" />
        <mxCell id="cIIfGYwshKXBx9OFRpak-1" value="" style="rounded=1;whiteSpace=wrap;html=1;" vertex="1" parent="1">
          <mxGeometry x="480" y="270" width="170" height="180" as="geometry" />
        </mxCell>
        <mxCell id="cIIfGYwshKXBx9OFRpak-2" value="" style="rounded=1;whiteSpace=wrap;html=1;" vertex="1" parent="1">
          <mxGeometry x="90" y="290" width="210" height="240" as="geometry" />
        </mxCell>
        <mxCell id="cIIfGYwshKXBx9OFRpak-3" value="Text" style="text;html=1;strokeColor=none;fillColor=none;align=center;verticalAlign=middle;whiteSpace=wrap;rounded=0;" vertex="1" parent="1">
          <mxGeometry x="545" y="240" width="40" height="20" as="geometry" />
        </mxCell>
        <mxCell id="cIIfGYwshKXBx9OFRpak-4" value="Text" style="text;html=1;strokeColor=none;fillColor=none;align=center;verticalAlign=middle;whiteSpace=wrap;rounded=0;" vertex="1" parent="1">
          <mxGeometry x="150" y="260" width="40" height="20" as="geometry" />
        </mxCell>
        <mxCell id="cIIfGYwshKXBx9OFRpak-5" value="Text" style="text;html=1;strokeColor=none;fillColor=none;align=center;verticalAlign=middle;whiteSpace=wrap;rounded=0;" vertex="1" parent="1">
          <mxGeometry x="100" y="440" width="40" height="20" as="geometry" />
        </mxCell>
        <mxCell id="cIIfGYwshKXBx9OFRpak-6" value="Text" style="text;html=1;strokeColor=none;fillColor=none;align=center;verticalAlign=middle;whiteSpace=wrap;rounded=0;" vertex="1" parent="1">
          <mxGeometry x="90" y="400" width="40" height="20" as="geometry" />
        </mxCell>
        <mxCell id="cIIfGYwshKXBx9OFRpak-7" value="Text" style="text;html=1;strokeColor=none;fillColor=none;align=center;verticalAlign=middle;whiteSpace=wrap;rounded=0;" vertex="1" parent="1">
          <mxGeometry x="90" y="365" width="40" height="20" as="geometry" />
        </mxCell>
        <mxCell id="cIIfGYwshKXBx9OFRpak-8" value="Text" style="text;html=1;strokeColor=none;fillColor=none;align=center;verticalAlign=middle;whiteSpace=wrap;rounded=0;" vertex="1" parent="1">
          <mxGeometry x="90" y="330" width="40" height="20" as="geometry" />
        </mxCell>
        <mxCell id="cIIfGYwshKXBx9OFRpak-9" value="Text" style="text;html=1;strokeColor=none;fillColor=none;align=center;verticalAlign=middle;whiteSpace=wrap;rounded=0;" vertex="1" parent="1">
          <mxGeometry x="90" y="310" width="40" height="20" as="geometry" />
        </mxCell>
        <mxCell id="cIIfGYwshKXBx9OFRpak-11" value="Text" style="text;html=1;strokeColor=none;fillColor=none;align=center;verticalAlign=middle;whiteSpace=wrap;rounded=0;" vertex="1" parent="1">
          <mxGeometry x="100" y="490" width="40" height="20" as="geometry" />
        </mxCell>
        <mxCell id="cIIfGYwshKXBx9OFRpak-12" value="Text" style="text;html=1;strokeColor=none;fillColor=none;align=center;verticalAlign=middle;whiteSpace=wrap;rounded=0;" vertex="1" parent="1">
          <mxGeometry x="490" y="280" width="40" height="20" as="geometry" />
        </mxCell>
        <mxCell id="cIIfGYwshKXBx9OFRpak-15" value="Text" style="text;html=1;strokeColor=none;fillColor=none;align=center;verticalAlign=middle;whiteSpace=wrap;rounded=0;" vertex="1" parent="1">
          <mxGeometry x="490" y="345" width="40" height="20" as="geometry" />
        </mxCell>
        <mxCell id="cIIfGYwshKXBx9OFRpak-16" value="Text" style="text;html=1;strokeColor=none;fillColor=none;align=center;verticalAlign=middle;whiteSpace=wrap;rounded=0;" vertex="1" parent="1">
          <mxGeometry x="490" y="310" width="40" height="20" as="geometry" />
        </mxCell>
        <mxCell id="cIIfGYwshKXBx9OFRpak-17" value="Text" style="text;html=1;strokeColor=none;fillColor=none;align=center;verticalAlign=middle;whiteSpace=wrap;rounded=0;" vertex="1" parent="1">
          <mxGeometry x="490" y="390" width="40" height="20" as="geometry" />
        </mxCell>
      </root>
    </mxGraphModel>
  </diagram>
</mxfile>
